<svg xmlns="http://www.w3.org/2000/svg" width="58" height="52" viewBox="0 0 58 52">
  <!-- legs, bunched close together under the compact body -->
  <g fill="#3a3a40">
    <rect x="23" y="35" width="4.5" height="12" rx="2.2"/>
    <rect x="30" y="36" width="4.5" height="11" rx="2.2"/>
    <rect x="37" y="36" width="4.5" height="11" rx="2.2"/>
    <rect x="43" y="35" width="4.5" height="12" rx="2.2"/>
  </g>
  <!-- bushy ringed tail -->
  <path d="M21 36 C9 38 2 31 3 21 C3.5 14 9 11 14 14 C11 17 12 22 17 24 C14 26 14 31 19 32 C21 30 22 33 23 37 Z" fill="#8b9096"/>
  <path d="M3 20 C3 15 6 12 10 12 C8 15 7 18 9 21 C6 22 4 22 3 20 Z" fill="#2a2a2e"/>
  <path d="M9 25 C11 22 14 22 16 25 L14 28 C12 25 11 25 9 27 Z" fill="#2a2a2e"/>
  <!-- tall hunched back (shortened spine) -->
  <path d="M17 38 C15 18 24 10 32 10 C43 10 49 20 49 31 C49 35 46 38 42 38 L21 38 C18 38 17 38 17 38 Z" fill="#8b9096"/>
  <!-- head carried low at the front, snout down -->
  <path d="M43 27 C51 25 56 31 56 37 C56 39 54 40 52 39 L47 36 C44 33 42 30 43 27 Z" fill="#8b9096"/>
  <!-- rounded ear -->
  <path d="M42 25 C42.5 18 45.5 16 47.5 18 C49 20 49.5 22 50 24 C47 25 44 25 42 25 Z" fill="#8b9096"/>
  <path d="M44 23 C44.5 19.5 46 18.5 47 19.5 C47.8 20.5 48 22 48.2 23 C46.5 23.5 45 23.5 44 23 Z" fill="#3a3a40"/>
  <!-- face mask -->
  <path d="M45 29 C50 28 54 30 55 34 C52 35 47 34 45 32 Z" fill="#2a2a2e"/>
  <!-- light muzzle -->
  <path d="M53 35 C56 35 57 36 57 37 C57 39 55 40 52 39 C51.5 38 52 36 53 35 Z" fill="#e8eaed"/>
  <!-- nose -->
  <circle cx="56" cy="37" r="1.6" fill="#1c1c1e"/>
  <!-- eye -->
  <circle cx="48.5" cy="31" r="1.3" fill="#f0f0f0"/>
</svg>
